<?xml version="1.0" encoding="UTF-8"?>
<svg version="1.1" viewBox="0 0 2048 1535" width="4476" height="3356" xmlns="http://www.w3.org/2000/svg">
<path transform="translate(1382,285)" d="m0 0h9l16 2 17 5 16 8 11 8 12 11 10 13 8 15 5 15 3 16v21l-4 20-7 17-9 14-9 10-9 9-15 10-16 7-15 4-10 1v151l-3 8-7 6-6 2-143 1 3 24v8l12 2 13 4 5 8 16 33-1 3h-2l3 9h386l6 3 4 5 1 2v36l-3 5-5 4-2 1h-27v498l-4 4-2 1h-294l-4-3-120-3-13-1-5-4-26-53-8-17-6-2-17-17-7-8-22-22-7-8-23-23-7-8-12-12 1 10 16 85v4h-19l10 14 9 11 9 10 8 7 9 4 44 11 36 8 3 2v6l-3 2h-209l-6-4-3-8-14-59-6-19-22-78-34-119-7-25-1-2-26 1 1 4-2 3-64 5h-4l35 176 24 122 1 5v7l-5-1-6-28-28-142-27-136v-3l-16 2-107 8h-8l3 12 33 166 24 122-1 3-3 1-2-2-20-100-34-172-5-26v-4h-40l-1 10-28 138-23 113-8 38-5 1-1-3 28-138 23-113 9-44 1-2h-132l-1 10-26 128-25 122-8 40-1 3-3 1-2-1 1-11 32-158 22-108 5-26-15-3-14-7-10-8-9-11-5-13-20-102-25-129-6-32v-14l4-16 6-12 7-9 10-9 16-8 12-3 88-1 6-20 16-47 9-10 9-9 15-10 17-7 16-4 22-2h9l3-25 2-14 1-2-9-3-13-8-10-8-10-9-10-12-9-15-6-15-3-12-1-9v-11l2-12 5-13 8-11 10-9 14-8 15-5 16-3h29l15 3 13 5 13 9 9 10 6 10v2h2l8 11 2 4 7 1v-8l3-3h27l2 2 1 11 8-7 10-10 2-1h36l5 3 11 14 2 1h13l1-5 2-1h14l2 1 1 5 5 3 1 1v100l-5 4-4 1 6 7v8l-4 6-3 2h-44l5 13 19 74 26 15 17 10 19 6v-250l3-8 7-6 6-2h357l1-7 8-18 10-14 10-11 13-10 12-7 16-6 14-3zm-675 206-14 1v33l30 3 16 5 12 7h2l5-20 4-7v-3l-45-1-5-5-1-2v-8l1-3zm63 19-6 8-4 12-2 10v4l23 13 10 6h2v-53zm29 0v57l13 8 26 15 5 3 2-1-18-70-5-10-2-2zm214 148 4 2 62 19h1v-9l-2-12zm-258 32-1 11v14l6 28 2 7h31v-39l-26-15-10-6zm44 25v35h86l-1-8-1-1-22-2-14-3-16-4-14-7-17-10zm90 26 2 9h190v-1l-11-1-176-7zm-113 65 1 8 5 21 1 2 42-1 92-3h44l15 4 14 7 9 7 10 10 5 8 5 5 11 12 9 11 12 14 77 91 9 11 13 15 9 11 13 15 33 39 9 11 13 15 88 104 2 3-38 1 1 3 8 7 9 9 11 9 9 8 13 9 8 4h1v-470z" fill="#BFD1FE"/>
<path transform="translate(1382,285)" d="m0 0h9l16 2 17 5 16 8 11 8 12 11 10 13 8 15 5 15 3 16v21l-4 20-7 17-9 14-9 10-9 9-15 10-16 7-15 4-10 1v151l-3 8-7 6-6 2-143 1 3 24v8l12 2 13 4 5 8 16 33-1 3h-2l3 9h386l6 3 4 5 1 2v36l-3 5-5 4-2 1h-27v498l-4 4-2 1h-294l-4-4 49 1h31l2-2-1-5-9-3-55-14-19-6v-470l-564 1-13-56v-1h31v-38l5 2 1 1v35h86l-2-9h6l2 9 186-1 1-3 8-7 13-13 8-7 12-12 7-6 6-7-7-1-43-13-2-1-2-21h-68l-79-24-16-5-1-1v-250l3-8 7-6 6-2h357l1-7 8-18 10-14 10-11 13-10 12-7 16-6 14-3z" fill="#DBDFF1"/>
<path transform="translate(1382,285)" d="m0 0h9l16 2 17 5 16 8 11 8 12 11 10 13 8 15 5 15 3 16v21l-4 20-7 17-9 14-9 10-9 9-15 10-16 7-15 4-10 1v151l-3 8-7 6-6 2-143 1 3 24v8l12 2 13 4 5 8 16 33-1 3h-2l3 9-48 1-1 1h-153l-1-3h-5l1-3 8-7 13-13 8-7 12-12 7-6 6-7-7-1-43-13-2-1-2-21h-68l-79-24-16-5-1-1v-250l3-8 7-6 6-2h357l1-7 8-18 10-14 10-11 13-10 12-7 16-6 14-3z" fill="#F9C2DD"/>
<path transform="translate(917,832)" d="m0 0h44l15 4 14 7 9 7 11 11 4 6v2l4 2 12 14 11 13 9 11 13 15 66 78 9 11 13 15 9 11 13 15 33 39 9 11 13 15 88 104 2 4h-39l18 18 11 9 9 8 13 9 8 4 35 10 48 12 3 3-1 5-2 2h-31l-169-4-13-1-5-4-26-53-8-17-6-2-17-17-7-8-22-22-7-8-23-23-7-8-12-12 1 10 16 85v4h-19l10 14 9 11 9 10 8 7 9 4 44 11 36 8 3 2v6l-3 2h-209l-6-4-3-8-14-59-6-19-22-78-34-119-7-25-1-2-35 1-191-14-3-2-27-127v-4l6-1 123-4z" fill="#FEB99B"/>
<path transform="translate(420,635)" d="m0 0h127l12 3 15 8 12 11 7 10 5 11 6 26 18 85 10 47 18 86 11 51 2 1 191 14h9l1 5-2 3-64 5h-4l35 176 24 122 1 5v7l-5-1-6-28-28-142-27-136v-3l-16 2-107 8h-8l3 12 33 166 24 122-1 3-3 1-2-2-20-100-34-172-5-26v-4h-40l-1 10-28 138-23 113-8 38-5 1-1-3 28-138 23-113 9-44 1-2h-132l-1 10-26 128-25 122-8 40-1 3-3 1-2-1 1-11 32-158 22-108 5-26-15-3-14-7-10-8-9-11-5-13-20-102-25-129-6-32v-14l4-16 6-12 7-9 10-9 16-8z" fill="#FBF6B8"/>
<path transform="translate(914,600)" d="m0 0h480v46l-4 6-5 4-6 2-143 1 3 24v8l12 2 13 4 5 8 16 33-1 3h-2l3 9-48 1-1 1h-153l-1-3h-5l1-3 8-7 13-13 8-7 12-12 7-6 6-7-7-1-43-13-2-1-2-21h-68l-79-24-16-5-1-1z" fill="#FBF6B8"/>
<path transform="translate(1382,285)" d="m0 0h9l16 2 17 5 16 8 11 8 12 11 10 13 8 15 5 15 3 16v21l-4 20-7 17-9 14-9 10-9 9-15 10-16 7-15 4-7 1h-25l-18-4-15-6-12-7-10-8-13-13-9-14-6-12-5-16-2-13v-20l4-20 8-19 8-12 11-13 12-10 15-9 16-6 14-3z" fill="#DCE0F1"/>
<path transform="translate(1507,499)" d="m0 0h27l16 4 16 8 10 7 10 9 10 14 7 14 4 15 1 7v18l-3 15-5 13-8 14-11 13-13 10-16 8-14 4-6 1h-23l-17-4-14-6-13-9-13-13-9-14-5-11-4-15-1-8v-15l3-16 5-13 8-14 11-13 10-8 14-8 18-6z" fill="#FEB99B"/>
<path transform="translate(632,321)" d="m0 0h29l15 3 13 5 13 9 9 10 6 10 1 9-4 6-9 8-14 8-15 6-4 2 7 9 5 11 1 4v13l-3 12 31 11h19l5 4-1 7-3 3h-17l-3-4v-4l-12-3-11-4-10-4h-3l-7 8-10 6-9 3h-16l-2 15-9-3-13-8-10-8-10-9-10-12-9-15-6-15-3-12-1-9v-11l2-12 5-13 8-11 10-9 14-8 15-5z" fill="#97F6F5"/>
<path transform="translate(789,360)" d="m0 0h36l5 3 11 14 2 1h13l1-5 2-1h14l2 1 1 5 5 3 1 1v100l-5 4-126 1-2 2h-31l3-3 9-6 8-9 5-11 2-8v-13l-3-12v-3l6-3-2-6-12-19-5-17v-3h7v-8l3-3h27l2 2 1 11 8-7 10-10z" fill="#BCEBFE"/>
<path transform="translate(717,360)" d="m0 0h2l8 11 4 11 4 14 13 21 1 4-5 3h-2l4 15v13l-4 13-6 10-8 8-9 5h30l2-2h119l5 3 4 5v8l-4 6-3 2h-44l5 13 18 70-1 4-5-3-5-18-15-57-5-8-21-1v56l-6-2v-54l-23 1-6 9-4 15-2 8-5-2 1-9 3-12 5-10h-45l-5-4-2-4v-8l1-2h-18v32h-66l7-52 1-3 16-1 11-4 9-6 6-7 5 1 15 5 10 4 6 2 3 7h17l3-4v-5l-4-3h-19l-31-11-1-3 3-10v-13l-5-13-8-12 8-3 16-7 14-9 7-8 1-2z" fill="#F9DFCD"/>
<path transform="translate(1169,1227)" d="m0 0h110l18 18 11 9 9 8 13 9 8 4 35 10 48 12 3 3-1 5-2 2h-31l-169-4-13-1-5-4-26-53-8-17z" fill="#1A1725"/>
<path transform="translate(959,1227)" d="m0 0h107l10 14 9 11 9 10 8 7 9 4 44 11 36 8 3 2v6l-3 2h-209l-6-4-3-8-14-59z" fill="#1A1825"/>
<path transform="translate(1206,685)" d="m0 0h9l44 10 6 3 10 19 10 21-1 3h-2l3 9-48 1-1 1h-153l-1-3h-5l1-3 8-7 13-13 8-7 12-12 8-7 27 6 6-1 35-17z" fill="#F9DFCD"/>
<path transform="translate(1378,341)" d="m0 0h16l13 4 9 6 9 9 7 14 2 10v8l-2 10-4 10-7 9-8 7-12 6-9 2h-12l-12-3-12-7-8-8-6-11-3-9v-20l5-13 6-8 7-7 10-6z" fill="#fff"/>
<path transform="translate(632,321)" d="m0 0h29l15 3 13 5 13 9 9 10 6 10 1 9-4 6-9 8-14 8-15 6-7 1-7-5-13-4-7-1-10-19-19-39v-3l12-3z" fill="#744F3A"/>
<path transform="translate(1498,554)" d="m0 0h45l11 4 7 8 3 7v26l-5 10-7 6-5 2h-53l-8-4-6-7-3-8v-24l4-10 8-7z" fill="#FEFDFD"/>
<path transform="translate(751,486)" d="m0 0h119l5 3 4 5v8l-4 6-3 2h-44l5 13 18 70-1 4-5-3-5-18-15-57-5-8-21-1v56l-6-2v-54l-23 1-6 9-4 15-2 8-5-2 1-9 3-12 5-10h-45l-5-4-2-4v-8l5-5 3-1h31z" fill="#F9C2DD"/>
<path transform="translate(589,336)" d="m0 0 3 1 16 28 14 24-1 4-8 6-6 9-4 10-1 12 2 11 5 10 7 8 10 6 9 3-2 16-9-3-13-8-10-8-10-9-10-12-9-15-6-15-3-12-1-9v-11l2-12 5-13 8-11 10-9z" fill="#744F3A"/>
<path transform="translate(799,396)" d="m0 0h17l10 4 8 6 6 8 4 10v16l-4 11-9 10-10 6-8 2h-11l-12-4-9-7-7-10-3-10v-11l3-10 5-8 7-7 10-5z" fill="#fff"/>
<path transform="translate(1367,846)" d="m0 0h251l6 5v163l-5 5h-253l-5-4-1-2v-161l4-5zm0 3-4 3v161l3 3h252l4-4v-158l-4-5z" fill="#fff"/>
<path transform="translate(587,529)" d="m0 0 2 1-10 4-6 3-8 7h-2l-1 10-2 6-3 4-1 7-4 7-2 10-4 6-1 12-3 8h-3l-1 7-3 12 7 1v1h-34l4-15 18-53 9-10 9-9 15-10 17-7z" fill="#BCEBFE"/>
<path transform="translate(1365,1047)" d="m0 0h254l5 5v162l-5 5h-254l-4-4-1-2v-161zm2 2-4 4v160l3 3 2 1h249l5-5v-158l-5-5z" fill="#fff"/>
<path transform="translate(788 1e3)" d="m0 0h6l35 176 24 122 1 5v7l-5-1-6-28-28-142-27-136z" fill="#F9C3DD"/>
<path transform="translate(469,1010)" d="m0 0 6 1-1 10-26 128-25 122-8 40-1 3-3 1-2-1 1-11 32-158 22-108 5-26z" fill="#F9C3DD"/>
<path transform="translate(652,1011)" d="m0 0h5l3 12 33 166 24 122-1 3-3 1-2-2-20-100-34-172-5-26z" fill="#F9C3DD"/>
<path transform="translate(607,1011)" d="m0 0h5l-1 10-28 138-23 113-8 38-5 1-1-3 28-138 23-113 9-44z" fill="#F9C3DD"/>
<path transform="translate(729,376)" d="m0 0h19l5 4v105l-4 4h-31l3-3 9-6 8-9 5-11 2-8v-13l-3-12v-3l6-3-2-6-12-19-5-17z" fill="#C0D1FE"/>
<path transform="translate(799,396)" d="m0 0h17l10 4 8 6 6 8 4 10v16l-4 11-9 10-10 6-8 2h-11l-12-4-9-7-7-10-3-10v-11l3-10 5-8 7-7 10-5zm3 5-11 4-8 7-6 12v16l4 9 7 8 6 4 6 2h16l10-5 6-5 5-8 2-7v-12l-5-12-8-8-12-5z" fill="#F9C3DD"/>
<path transform="translate(1231,722)" d="m0 0h7l11 9 14 14 5 1 4-1 1-7-2-6h3l6 8 3 3 2 7h-39v-4l-41-9-1-3z" fill="#221C27"/>
<path transform="translate(1488,1065)" d="m0 0h10l8 5 4 8v9l-5 8-6 4-9 1-9-4-5-7-1-10 4-8 6-5z" fill="#fff"/>
<path transform="translate(1487,865)" d="m0 0h12l6 4 5 8v9l-4 8-8 5h-10l-6-3-5-6-2-5 1-10 5-7z" fill="#fff"/>
<path transform="translate(1354,805)" d="m0 0h285l1 3h-287z" fill="#fff"/>
<path transform="translate(1015,892)" d="m0 0 3 1 5 22 42 200 2 9-1 5-3-2-27-129-21-100z" fill="#483430"/>
<path transform="translate(1084,748)" d="m0 0h152v4h-153l-1-3z" fill="#45322F"/>
<path transform="translate(1075,655)" d="m0 0h158l1 3h-160z" fill="#fff"/>
<path transform="translate(739,365)" d="m0 0h27l2 2v12h-17l-3-2-12-1v-8z" fill="#FAF6B9"/>
<path transform="translate(1505,574)" d="m0 0h7l1 1v7h7v8h-7v7l-1 1h-7v-8h-8v-8h8z" fill="#FEB99B"/>
<path transform="translate(698,643)" d="m0 0 4 1 17 14 17 13 17 14 4 4-4 1-13-11-42-33z" fill="#3B2C2D"/>
<path transform="translate(1376,386)" d="m0 0h20l2 1-1 5-5 5-2 1h-8l-6-4-2-6z" fill="#DCE0F1"/>
<path transform="translate(793,712)" d="m0 0 5 2 1 1v35h-6z" fill="#F9C6DB"/>
<path transform="translate(674,485)" d="m0 0 11 3 8 3v19l-5-5-14-18z" fill="#2F252A"/>
<path transform="translate(1015,892)" d="m0 0 3 1 5 22 6 28v4h-2l-1 4-11-53z" fill="#45322F"/>
<path transform="translate(1043,1015)" d="m0 0h1l11 52v4h-2l-1 3-11-52 1-4z" fill="#43312F"/>
<path transform="translate(1236,711)" d="m0 0 7 1 10 4 9 12 10 16-3 1-17-25v-2l-12-3-4-2z" fill="#FFB99B"/>
<path transform="translate(1239,700)" d="m0 0 7 1 11 3 12 19 4 6-1 3-4-4-12-19v-2l-16-4z" fill="#FFB99B"/>
<path transform="translate(859,372)" d="m0 0h14l2 1 1 6h-20l1-6z" fill="#FBF7BA"/>
<path transform="translate(1053,1071)" d="m0 0 3 1 4 19v9l-3-2-4-19z" fill="#42302E"/>
<path transform="translate(1015,892)" d="m0 0 3 1 4 17v9l-3-2-4-19z" fill="#44312F"/>
<path transform="translate(1037,995)" d="m0 0 3 1 3 14v9l-3-2-3-14z" fill="#3D2D2D"/>
<path transform="translate(721,398)" d="m0 0 4 2 1 10-5 1-2-6v-5z" fill="#37292C"/>
<path transform="translate(1536,590)" d="m0 0h8v8h-7l-1-1z" fill="#FEBAA5"/>
<path transform="translate(1529,574)" d="m0 0h7v8h-7z" fill="#FFB99B"/>
<path transform="translate(883,741)" d="m0 0h6l2 9h-6z" fill="#F9C3DD"/>
<path transform="translate(1062,1114)" d="m0 0 3 1 2 9-1 5-3-2-1-5z" fill="#42302E"/>
<path transform="translate(1027,947)" d="m0 0 3 1 1 5v9l-2 3-2-10z" fill="#3E2E2D"/>
<path transform="translate(719,434)" d="m0 0h2l5 6 7 1 1 3h-8l-6-5z" fill="#744F3A"/>
<path transform="translate(1043,1015)" d="m0 0h1l2 9v4h-2l-1 4-2-10 1-4z" fill="#4D3731"/>
<path transform="translate(1022,915)" d="m0 0h1l2 9v4h-2l-1 4-2-10 1-4z" fill="#4D3731"/>
<path transform="translate(1406,374)" d="m0 0 4 1 1 4-2 2h-5l-1-4z" fill="#DCE0F1"/>
<path transform="translate(1365,374)" d="m0 0 4 1 1 4-1 2h-5l-1-5z" fill="#DCE0F1"/>
<path transform="translate(1048,1038)" d="m0 0h1l2 10v4h-2l-1 4-1-5v-8z" fill="#4B3630"/>
<path transform="translate(1031,957)" d="m0 0h1l2 10v4h-2l-1 3-1-4v-8z" fill="#4A3530"/>
<path transform="translate(1049,1052)" d="m0 0 3 1v9l-2 3-1-5z" fill="#3C2C2D"/>
<path transform="translate(1015,892)" d="m0 0 3 1 1 7h-2l-1 3z" fill="#4F3831"/>
<path transform="translate(1053,1071)" d="m0 0 3 1v9l-3-2z" fill="#33272B"/>
<path transform="translate(1032,971)" d="m0 0 3 1v9l-3-2z" fill="#33272B"/>
<path transform="translate(1019,909)" d="m0 0 3 1v9l-3-2z" fill="#33272B"/>
</svg>
